<?xml version="1.0" encoding="UTF-8" standalone="no"?>
<svg
   xmlns:dc="http://purl.org/dc/elements/1.1/"
   xmlns:cc="http://creativecommons.org/ns#"
   xmlns:rdf="http://www.w3.org/1999/02/22-rdf-syntax-ns#"
   xmlns:svg="http://www.w3.org/2000/svg"
   xmlns="http://www.w3.org/2000/svg"
   viewBox="0 0 340.16 188.97333"
   height="188.97333"
   width="340.16"
   xml:space="preserve"
   id="svg2"
   version="1.1"><metadata
     id="metadata8"><rdf:RDF><cc:Work
         rdf:about=""><dc:format>image/svg+xml</dc:format><dc:type
           rdf:resource="http://purl.org/dc/dcmitype/StillImage" /></cc:Work></rdf:RDF></metadata><defs
     id="defs6"><clipPath
       id="clipPath18"
       clipPathUnits="userSpaceOnUse"><path
         id="path16"
         d="M 0,141.73 H 255.12 V 0 H 0 Z" /></clipPath></defs><g
     transform="matrix(1.3333333,0,0,-1.3333333,0,188.97333)"
     id="g10"><g
       id="g12"><g
         clip-path="url(#clipPath18)"
         id="g14"><g
           transform="translate(93.8691,75.2734)"
           id="g20"><path
             id="path22"
             style="fill:#ab7fb5;fill-opacity:1;fill-rule:nonzero;stroke:none"
             d="m 0,0 c -0.85,0.25 -1.5,0.4 -2.15,0.4 -3.301,0 -4.801,-3.75 -4.551,-7.251 0.25,-3.149 2.151,-5.25 4.801,-5.25 0.85,0 1.9,0.1 3.05,0.6 z m 3.5,-13.65 c -1.55,-0.452 -3.6,-0.75 -5.75,-1 -5.5,-0.651 -8.801,4.049 -8.801,8.75 0,4.75 3.35,9.35 8.001,9.35 0.55,0 1.3,-0.1 2.55,-0.45 v 7.601 c 0,3.05 0.6,5.05 2.1,5.2 1.7,0.2 1.9,-1.45 2.05,-3.95 C 4.1,4.7 4.35,-2.15 5.3,-9.601 c 0.2,-1.65 0.1,-3.501 -1.8,-4.049" /></g><g
           transform="translate(108.3682,70.2729)"
           id="g24"><path
             id="path26"
             style="fill:#332d2b;fill-opacity:1;fill-rule:nonzero;stroke:none"
             d="m 0,0 c -1.05,0.05 -2,-0.7 -2,-1.9 0,-1.15 0.75,-1.801 1.45,-1.85 1.15,-0.1 2.3,0.5 2.3,1.85 0,1.05 -0.8,1.85 -1.75,1.9 m 0,13.501 c -1.05,0.05 -2,-0.7 -2,-1.9 0,-1.15 0.75,-1.8 1.45,-1.851 1.15,-0.099 2.3,0.501 2.3,1.851 0,1.05 -0.8,1.85 -1.75,1.9 M -1.5,-5.75 c -1.25,0.2 -2.4,1.45 -2.6,3.049 C -4.4,-0.6 -2.65,1.2 -0.65,1.05 1,0.9 2.25,-0.55 2.25,-2 2.25,-3.951 1,-6.1 -1.5,-5.75 M -1.6,7.851 c -1.55,0.2 -2.3,1.5 -2.5,2.95 -0.3,2.1 1.45,3.8 3.45,3.65 1.8,-0.15 2.85,-1.5 2.85,-2.95 0,-2.1 -1.3,-4.001 -3.8,-3.65" /></g><g
           transform="translate(121.3687,79.7236)"
           id="g28"><path
             id="path30"
             style="fill:#332d2b;fill-opacity:1;fill-rule:nonzero;stroke:none"
             d="m 0,0 c 0.05,-0.75 0,-1.75 0,-2 0,-1.25 -0.05,-2.55 -0.05,-3.75 0,-2 -0.05,-3.601 -0.05,-5.401 0,-0.95 0.05,-1.4 0.05,-2.35 0,-1.25 0.6,-1.9 1.55,-2.1 0.8,-0.15 1.65,-0.1 2.65,-0.15 H 7.2 c 0.85,0 1.8,0.05 2.55,-0.2 0.55,-0.2 0.85,-0.85 0.8,-1.4 0,-0.65 -0.3,-1.3 -0.85,-1.451 -0.45,-0.199 -1.299,-0.149 -1.75,-0.149 H 6 c -1.65,0 -2.55,0.05 -3.95,0.05 -1.15,0 -2.4,0.05 -3.55,0.25 -0.45,0 -1.601,0.25 -2.201,1.099 -0.349,0.451 -0.599,1.251 -0.599,2.102 -0.051,0.949 0.05,1.849 0.05,2.649 0.049,0.75 0.049,1.65 0.1,2.45 0.049,1.65 0.1,3.101 0.1,4.901 l 0.15,4.3 c 0,0.45 0.049,1.35 0.25,1.75 0.1,0.35 0.35,0.65 0.7,0.8 0.55,0.35 1.6,0.35 2.15,-0.05 C -0.35,1.1 -0.05,0.75 0,0" /></g><g
           transform="translate(142.6182,70.9233)"
           id="g32"><path
             id="path34"
             style="fill:#332d2b;fill-opacity:1;fill-rule:nonzero;stroke:none"
             d="M 0,0 C 0.05,-0.6 0.1,-1.1 0.1,-1.55 V -7.3 C 0.05,-8.751 0,-9.401 0,-10.601 c 0,-0.949 -0.05,-2.6 -0.7,-3.4 -0.45,-0.35 -0.95,-0.45 -1.401,-0.4 -0.549,0 -1.25,0.25 -1.45,0.8 -0.25,0.551 -0.399,1.1 -0.449,1.75 0,0.2 0,0.5 -0.051,0.85 v 9.451 c 0,0.55 0.101,1.2 0.151,1.8 0.15,0.65 0.25,1.2 0.7,1.6 0.649,0.4 1.8,0.4 2.4,0 C -0.351,1.4 -0.05,0.75 0,0 M -6.051,6.15 C -6.7,6.2 -7.45,7 -7.301,7.65 V 7.8 c 0.151,0.4 0.2,0.7 0.45,0.95 0.201,0.4 0.55,0.7 0.8,1.05 0.401,0.4 0.851,0.801 1.3,1.151 0.4,0.449 0.801,0.699 1.2,1.099 0.401,0.25 1.051,0.501 1.7,0.45 0.05,0 0.101,0.051 0.301,-0.1 0.25,-0.15 0.5,-0.35 0.699,-0.6 0.25,-0.449 0.351,-0.849 0.25,-1.199 C -0.75,10.15 -1.15,9.55 -1.55,9 -2,8.55 -2.2,8.45 -2.65,7.9 -3,7.5 -3.45,7.2 -3.801,6.85 -4.4,6.4 -5.101,5.9 -6.051,6.15" /></g><g
           transform="translate(161.1172,77.1235)"
           id="g36"><path
             id="path38"
             style="fill:#332d2b;fill-opacity:1;fill-rule:nonzero;stroke:none"
             d="m 0,0 c 0.45,-0.55 0.35,-1.55 -0.25,-2 -1,-0.6 -2.25,-0.4 -3.2,-0.4 C -4.2,-2.45 -5.15,-2.45 -5.551,-3 -5.95,-3.55 -5.9,-4.8 -5.9,-5.4 v -4.95 c 0,-0.851 0,-1.551 0.049,-2.351 0.101,-0.7 0.351,-1.25 0.8,-1.7 0.2,-0.25 0.45,-0.5 0.801,-0.65 1.25,-0.75 2.55,-0.651 3.9,-0.651 0.45,0 1.2,-0.25 1.45,-0.5 0.35,-0.449 0.4,-1 0.15,-1.649 -0.2,-0.601 -1.25,-0.899 -1.5,-0.899 -0.8,-0.202 -1.4,-0.202 -2.15,-0.202 -0.951,0 -1.951,0.101 -2.951,0.351 -0.75,0.2 -1.399,0.45 -2,0.8 l -0.7,0.551 c -0.399,0.449 -0.7,0.899 -0.95,1.349 -0.449,1.151 -0.699,2.25 -0.699,3.45 -0.051,1.25 -0.051,2.4 -0.051,3.601 v 4.35 c 0.051,0.65 0.101,1.5 -0.75,1.9 -0.399,0.15 -0.649,0.15 -1,0.2 -0.25,0.05 -0.399,0.1 -0.55,0.15 -0.45,0.15 -0.849,0.35 -1,0.75 -0.25,0.55 -0.15,1.1 0.1,1.45 0.25,0.3 0.6,0.5 1.051,0.55 0.599,0.05 1.25,0.05 1.849,0.4 0.55,0.45 0.401,1.5 0.401,2.15 V 6.1 c 0,0.95 0.099,1.601 0.75,2.15 0.799,0.601 1.9,0.55 2.549,-0.1 0.401,-0.449 0.5,-1.549 0.5,-2.3 C -5.851,4.4 -6,3.35 -5.801,1.9 -5.75,1.35 -5.45,0.95 -4.9,0.7 -4.5,0.55 -4.15,0.55 -3.601,0.55 H -2.9 c 1.05,0 2.1,0.1 2.85,-0.5 z" /></g><g
           transform="translate(181.5176,73.3232)"
           id="g40"><path
             id="path42"
             style="fill:#332d2b;fill-opacity:1;fill-rule:nonzero;stroke:none"
             d="m 0,0 c 0,0.15 -0.051,0.3 -0.051,0.35 -0.199,1 -0.75,1.6 -1.55,1.95 -0.95,0.55 -1.65,0.65 -2.599,0.65 -1,0 -1.95,-0.05 -2.801,-0.4 -1.55,-0.55 -2.9,-1.75 -2.55,-3.4 0.25,-0.6 0.8,-1.1 1.45,-1.45 0.6,-0.2 1.4,-0.35 2.05,-0.4 1.55,-0.05 3.5,-0.15 4.95,0.85 C -0.5,-1.3 0,-0.8 0,0 M 3.05,2.05 C 3.2,1.45 3.45,0.7 3.45,-0.05 3.3,-2.9 1.75,-5.101 -1.301,-5.851 -3.251,-6.2 -5.2,-6.351 -7.251,-5.95 c -0.35,0.05 -0.7,0.099 -1.05,0.099 -0.349,0 -0.849,-0.099 -1.1,-0.299 -0.25,-0.4 -0.15,-1.101 0.05,-1.55 0.4,-0.85 1.6,-1.7 2.65,-2.101 2.001,-0.8 3.501,-0.8 5.501,-0.599 0.599,0 1.45,0.099 2.2,-0.05 0.649,-0.151 1.05,-0.5 1.1,-1.351 -0.05,-0.8 -0.8,-1.399 -1.75,-1.649 -1,-0.351 -2.05,-0.401 -2.8,-0.401 -3,-0.15 -5.751,0.401 -7.951,1.95 -1.25,1.001 -2,2.001 -2.6,3.451 -0.4,0.849 -0.65,1.65 -0.8,2.4 -0.4,1.55 -0.35,3.35 -0.15,4.9 0.2,1 0.5,2.2 1.05,3.15 0.95,1.8 2.3,2.85 4.1,3.601 0.45,0.199 0.8,0.349 1.151,0.399 1.399,0.4 2.549,0.45 4,0.4 C -2.4,6.2 -1.25,5.95 0,5.3 1.399,4.55 2.45,3.4 3.05,2.05" /></g></g></g></g></svg>